%TF.GenerationSoftware,KiCad,Pcbnew,7.0.10*%
%TF.CreationDate,2024-12-14T08:00:09+00:00*%
%TF.ProjectId,z80_min_sbc_pcb,7a38305f-6d69-46e5-9f73-62635f706362,rev?*%
%TF.SameCoordinates,Original*%
%TF.FileFunction,Legend,Top*%
%TF.FilePolarity,Positive*%
%FSLAX46Y46*%
G04 Gerber Fmt 4.6, Leading zero omitted, Abs format (unit mm)*
G04 Created by KiCad (PCBNEW 7.0.10) date 2024-12-14 08:00:09*
%MOMM*%
%LPD*%
G01*
G04 APERTURE LIST*
%ADD10C,0.187500*%
%ADD11C,0.120000*%
G04 APERTURE END LIST*
D10*
X107361450Y-97117869D02*
X107361450Y-96117869D01*
X107361450Y-96117869D02*
X107599545Y-96117869D01*
X107599545Y-96117869D02*
X107742402Y-96165488D01*
X107742402Y-96165488D02*
X107837640Y-96260726D01*
X107837640Y-96260726D02*
X107885259Y-96355964D01*
X107885259Y-96355964D02*
X107932878Y-96546440D01*
X107932878Y-96546440D02*
X107932878Y-96689297D01*
X107932878Y-96689297D02*
X107885259Y-96879773D01*
X107885259Y-96879773D02*
X107837640Y-96975011D01*
X107837640Y-96975011D02*
X107742402Y-97070250D01*
X107742402Y-97070250D02*
X107599545Y-97117869D01*
X107599545Y-97117869D02*
X107361450Y-97117869D01*
X108551926Y-96117869D02*
X108647164Y-96117869D01*
X108647164Y-96117869D02*
X108742402Y-96165488D01*
X108742402Y-96165488D02*
X108790021Y-96213107D01*
X108790021Y-96213107D02*
X108837640Y-96308345D01*
X108837640Y-96308345D02*
X108885259Y-96498821D01*
X108885259Y-96498821D02*
X108885259Y-96736916D01*
X108885259Y-96736916D02*
X108837640Y-96927392D01*
X108837640Y-96927392D02*
X108790021Y-97022630D01*
X108790021Y-97022630D02*
X108742402Y-97070250D01*
X108742402Y-97070250D02*
X108647164Y-97117869D01*
X108647164Y-97117869D02*
X108551926Y-97117869D01*
X108551926Y-97117869D02*
X108456688Y-97070250D01*
X108456688Y-97070250D02*
X108409069Y-97022630D01*
X108409069Y-97022630D02*
X108361450Y-96927392D01*
X108361450Y-96927392D02*
X108313831Y-96736916D01*
X108313831Y-96736916D02*
X108313831Y-96498821D01*
X108313831Y-96498821D02*
X108361450Y-96308345D01*
X108361450Y-96308345D02*
X108409069Y-96213107D01*
X108409069Y-96213107D02*
X108456688Y-96165488D01*
X108456688Y-96165488D02*
X108551926Y-96117869D01*
X177611450Y-128867869D02*
X177611450Y-127867869D01*
X178278116Y-127867869D02*
X178468592Y-127867869D01*
X178468592Y-127867869D02*
X178563830Y-127915488D01*
X178563830Y-127915488D02*
X178659068Y-128010726D01*
X178659068Y-128010726D02*
X178706687Y-128201202D01*
X178706687Y-128201202D02*
X178706687Y-128534535D01*
X178706687Y-128534535D02*
X178659068Y-128725011D01*
X178659068Y-128725011D02*
X178563830Y-128820250D01*
X178563830Y-128820250D02*
X178468592Y-128867869D01*
X178468592Y-128867869D02*
X178278116Y-128867869D01*
X178278116Y-128867869D02*
X178182878Y-128820250D01*
X178182878Y-128820250D02*
X178087640Y-128725011D01*
X178087640Y-128725011D02*
X178040021Y-128534535D01*
X178040021Y-128534535D02*
X178040021Y-128201202D01*
X178040021Y-128201202D02*
X178087640Y-128010726D01*
X178087640Y-128010726D02*
X178182878Y-127915488D01*
X178182878Y-127915488D02*
X178278116Y-127867869D01*
X179706687Y-128867869D02*
X179373354Y-128391678D01*
X179135259Y-128867869D02*
X179135259Y-127867869D01*
X179135259Y-127867869D02*
X179516211Y-127867869D01*
X179516211Y-127867869D02*
X179611449Y-127915488D01*
X179611449Y-127915488D02*
X179659068Y-127963107D01*
X179659068Y-127963107D02*
X179706687Y-128058345D01*
X179706687Y-128058345D02*
X179706687Y-128201202D01*
X179706687Y-128201202D02*
X179659068Y-128296440D01*
X179659068Y-128296440D02*
X179611449Y-128344059D01*
X179611449Y-128344059D02*
X179516211Y-128391678D01*
X179516211Y-128391678D02*
X179135259Y-128391678D01*
X180801925Y-128963107D02*
X180706687Y-128915488D01*
X180706687Y-128915488D02*
X180611449Y-128820250D01*
X180611449Y-128820250D02*
X180468592Y-128677392D01*
X180468592Y-128677392D02*
X180373354Y-128629773D01*
X180373354Y-128629773D02*
X180278116Y-128629773D01*
X180325735Y-128867869D02*
X180230497Y-128820250D01*
X180230497Y-128820250D02*
X180135259Y-128725011D01*
X180135259Y-128725011D02*
X180087640Y-128534535D01*
X180087640Y-128534535D02*
X180087640Y-128201202D01*
X180087640Y-128201202D02*
X180135259Y-128010726D01*
X180135259Y-128010726D02*
X180230497Y-127915488D01*
X180230497Y-127915488D02*
X180325735Y-127867869D01*
X180325735Y-127867869D02*
X180516211Y-127867869D01*
X180516211Y-127867869D02*
X180611449Y-127915488D01*
X180611449Y-127915488D02*
X180706687Y-128010726D01*
X180706687Y-128010726D02*
X180754306Y-128201202D01*
X180754306Y-128201202D02*
X180754306Y-128534535D01*
X180754306Y-128534535D02*
X180706687Y-128725011D01*
X180706687Y-128725011D02*
X180611449Y-128820250D01*
X180611449Y-128820250D02*
X180516211Y-128867869D01*
X180516211Y-128867869D02*
X180325735Y-128867869D01*
X181944783Y-128344059D02*
X182278116Y-128344059D01*
X182420973Y-128867869D02*
X181944783Y-128867869D01*
X181944783Y-128867869D02*
X181944783Y-127867869D01*
X181944783Y-127867869D02*
X182420973Y-127867869D01*
X182849545Y-128867869D02*
X182849545Y-127867869D01*
X182849545Y-127867869D02*
X183420973Y-128867869D01*
X183420973Y-128867869D02*
X183420973Y-127867869D01*
X107361450Y-114617869D02*
X107361450Y-113617869D01*
X107361450Y-113617869D02*
X107599545Y-113617869D01*
X107599545Y-113617869D02*
X107742402Y-113665488D01*
X107742402Y-113665488D02*
X107837640Y-113760726D01*
X107837640Y-113760726D02*
X107885259Y-113855964D01*
X107885259Y-113855964D02*
X107932878Y-114046440D01*
X107932878Y-114046440D02*
X107932878Y-114189297D01*
X107932878Y-114189297D02*
X107885259Y-114379773D01*
X107885259Y-114379773D02*
X107837640Y-114475011D01*
X107837640Y-114475011D02*
X107742402Y-114570250D01*
X107742402Y-114570250D02*
X107599545Y-114617869D01*
X107599545Y-114617869D02*
X107361450Y-114617869D01*
X108266212Y-113617869D02*
X108932878Y-113617869D01*
X108932878Y-113617869D02*
X108504307Y-114617869D01*
X201063831Y-99332154D02*
X201540021Y-99332154D01*
X200968593Y-99617869D02*
X201301926Y-98617869D01*
X201301926Y-98617869D02*
X201635259Y-99617869D01*
X202159069Y-98617869D02*
X202254307Y-98617869D01*
X202254307Y-98617869D02*
X202349545Y-98665488D01*
X202349545Y-98665488D02*
X202397164Y-98713107D01*
X202397164Y-98713107D02*
X202444783Y-98808345D01*
X202444783Y-98808345D02*
X202492402Y-98998821D01*
X202492402Y-98998821D02*
X202492402Y-99236916D01*
X202492402Y-99236916D02*
X202444783Y-99427392D01*
X202444783Y-99427392D02*
X202397164Y-99522630D01*
X202397164Y-99522630D02*
X202349545Y-99570250D01*
X202349545Y-99570250D02*
X202254307Y-99617869D01*
X202254307Y-99617869D02*
X202159069Y-99617869D01*
X202159069Y-99617869D02*
X202063831Y-99570250D01*
X202063831Y-99570250D02*
X202016212Y-99522630D01*
X202016212Y-99522630D02*
X201968593Y-99427392D01*
X201968593Y-99427392D02*
X201920974Y-99236916D01*
X201920974Y-99236916D02*
X201920974Y-98998821D01*
X201920974Y-98998821D02*
X201968593Y-98808345D01*
X201968593Y-98808345D02*
X202016212Y-98713107D01*
X202016212Y-98713107D02*
X202063831Y-98665488D01*
X202063831Y-98665488D02*
X202159069Y-98617869D01*
X200932878Y-117373630D02*
X200885259Y-117421250D01*
X200885259Y-117421250D02*
X200742402Y-117468869D01*
X200742402Y-117468869D02*
X200647164Y-117468869D01*
X200647164Y-117468869D02*
X200504307Y-117421250D01*
X200504307Y-117421250D02*
X200409069Y-117326011D01*
X200409069Y-117326011D02*
X200361450Y-117230773D01*
X200361450Y-117230773D02*
X200313831Y-117040297D01*
X200313831Y-117040297D02*
X200313831Y-116897440D01*
X200313831Y-116897440D02*
X200361450Y-116706964D01*
X200361450Y-116706964D02*
X200409069Y-116611726D01*
X200409069Y-116611726D02*
X200504307Y-116516488D01*
X200504307Y-116516488D02*
X200647164Y-116468869D01*
X200647164Y-116468869D02*
X200742402Y-116468869D01*
X200742402Y-116468869D02*
X200885259Y-116516488D01*
X200885259Y-116516488D02*
X200932878Y-116564107D01*
X201837640Y-117468869D02*
X201361450Y-117468869D01*
X201361450Y-117468869D02*
X201361450Y-116468869D01*
X202170974Y-117468869D02*
X202170974Y-116468869D01*
X202742402Y-117468869D02*
X202313831Y-116897440D01*
X202742402Y-116468869D02*
X202170974Y-117040297D01*
X164361450Y-128867869D02*
X164361450Y-127867869D01*
X164361450Y-127867869D02*
X164694783Y-128582154D01*
X164694783Y-128582154D02*
X165028116Y-127867869D01*
X165028116Y-127867869D02*
X165028116Y-128867869D01*
X166075735Y-128867869D02*
X165742402Y-128391678D01*
X165504307Y-128867869D02*
X165504307Y-127867869D01*
X165504307Y-127867869D02*
X165885259Y-127867869D01*
X165885259Y-127867869D02*
X165980497Y-127915488D01*
X165980497Y-127915488D02*
X166028116Y-127963107D01*
X166028116Y-127963107D02*
X166075735Y-128058345D01*
X166075735Y-128058345D02*
X166075735Y-128201202D01*
X166075735Y-128201202D02*
X166028116Y-128296440D01*
X166028116Y-128296440D02*
X165980497Y-128344059D01*
X165980497Y-128344059D02*
X165885259Y-128391678D01*
X165885259Y-128391678D02*
X165504307Y-128391678D01*
X166504307Y-128344059D02*
X166837640Y-128344059D01*
X166980497Y-128867869D02*
X166504307Y-128867869D01*
X166504307Y-128867869D02*
X166504307Y-127867869D01*
X166504307Y-127867869D02*
X166980497Y-127867869D01*
X168075735Y-128963107D02*
X167980497Y-128915488D01*
X167980497Y-128915488D02*
X167885259Y-128820250D01*
X167885259Y-128820250D02*
X167742402Y-128677392D01*
X167742402Y-128677392D02*
X167647164Y-128629773D01*
X167647164Y-128629773D02*
X167551926Y-128629773D01*
X167599545Y-128867869D02*
X167504307Y-128820250D01*
X167504307Y-128820250D02*
X167409069Y-128725011D01*
X167409069Y-128725011D02*
X167361450Y-128534535D01*
X167361450Y-128534535D02*
X167361450Y-128201202D01*
X167361450Y-128201202D02*
X167409069Y-128010726D01*
X167409069Y-128010726D02*
X167504307Y-127915488D01*
X167504307Y-127915488D02*
X167599545Y-127867869D01*
X167599545Y-127867869D02*
X167790021Y-127867869D01*
X167790021Y-127867869D02*
X167885259Y-127915488D01*
X167885259Y-127915488D02*
X167980497Y-128010726D01*
X167980497Y-128010726D02*
X168028116Y-128201202D01*
X168028116Y-128201202D02*
X168028116Y-128534535D01*
X168028116Y-128534535D02*
X167980497Y-128725011D01*
X167980497Y-128725011D02*
X167885259Y-128820250D01*
X167885259Y-128820250D02*
X167790021Y-128867869D01*
X167790021Y-128867869D02*
X167599545Y-128867869D01*
X169218593Y-128344059D02*
X169551926Y-128344059D01*
X169694783Y-128867869D02*
X169218593Y-128867869D01*
X169218593Y-128867869D02*
X169218593Y-127867869D01*
X169218593Y-127867869D02*
X169694783Y-127867869D01*
X170123355Y-128867869D02*
X170123355Y-127867869D01*
X170123355Y-127867869D02*
X170694783Y-128867869D01*
X170694783Y-128867869D02*
X170694783Y-127867869D01*
X200682878Y-114881119D02*
X200349545Y-114404928D01*
X200111450Y-114881119D02*
X200111450Y-113881119D01*
X200111450Y-113881119D02*
X200492402Y-113881119D01*
X200492402Y-113881119D02*
X200587640Y-113928738D01*
X200587640Y-113928738D02*
X200635259Y-113976357D01*
X200635259Y-113976357D02*
X200682878Y-114071595D01*
X200682878Y-114071595D02*
X200682878Y-114214452D01*
X200682878Y-114214452D02*
X200635259Y-114309690D01*
X200635259Y-114309690D02*
X200587640Y-114357309D01*
X200587640Y-114357309D02*
X200492402Y-114404928D01*
X200492402Y-114404928D02*
X200111450Y-114404928D01*
X201111450Y-114357309D02*
X201444783Y-114357309D01*
X201587640Y-114881119D02*
X201111450Y-114881119D01*
X201111450Y-114881119D02*
X201111450Y-113881119D01*
X201111450Y-113881119D02*
X201587640Y-113881119D01*
X201968593Y-114833500D02*
X202111450Y-114881119D01*
X202111450Y-114881119D02*
X202349545Y-114881119D01*
X202349545Y-114881119D02*
X202444783Y-114833500D01*
X202444783Y-114833500D02*
X202492402Y-114785880D01*
X202492402Y-114785880D02*
X202540021Y-114690642D01*
X202540021Y-114690642D02*
X202540021Y-114595404D01*
X202540021Y-114595404D02*
X202492402Y-114500166D01*
X202492402Y-114500166D02*
X202444783Y-114452547D01*
X202444783Y-114452547D02*
X202349545Y-114404928D01*
X202349545Y-114404928D02*
X202159069Y-114357309D01*
X202159069Y-114357309D02*
X202063831Y-114309690D01*
X202063831Y-114309690D02*
X202016212Y-114262071D01*
X202016212Y-114262071D02*
X201968593Y-114166833D01*
X201968593Y-114166833D02*
X201968593Y-114071595D01*
X201968593Y-114071595D02*
X202016212Y-113976357D01*
X202016212Y-113976357D02*
X202063831Y-113928738D01*
X202063831Y-113928738D02*
X202159069Y-113881119D01*
X202159069Y-113881119D02*
X202397164Y-113881119D01*
X202397164Y-113881119D02*
X202540021Y-113928738D01*
X202968593Y-114357309D02*
X203301926Y-114357309D01*
X203444783Y-114881119D02*
X202968593Y-114881119D01*
X202968593Y-114881119D02*
X202968593Y-113881119D01*
X202968593Y-113881119D02*
X203444783Y-113881119D01*
X203730498Y-113881119D02*
X204301926Y-113881119D01*
X204016212Y-114881119D02*
X204016212Y-113881119D01*
X200932878Y-119711380D02*
X200885259Y-119759000D01*
X200885259Y-119759000D02*
X200742402Y-119806619D01*
X200742402Y-119806619D02*
X200647164Y-119806619D01*
X200647164Y-119806619D02*
X200504307Y-119759000D01*
X200504307Y-119759000D02*
X200409069Y-119663761D01*
X200409069Y-119663761D02*
X200361450Y-119568523D01*
X200361450Y-119568523D02*
X200313831Y-119378047D01*
X200313831Y-119378047D02*
X200313831Y-119235190D01*
X200313831Y-119235190D02*
X200361450Y-119044714D01*
X200361450Y-119044714D02*
X200409069Y-118949476D01*
X200409069Y-118949476D02*
X200504307Y-118854238D01*
X200504307Y-118854238D02*
X200647164Y-118806619D01*
X200647164Y-118806619D02*
X200742402Y-118806619D01*
X200742402Y-118806619D02*
X200885259Y-118854238D01*
X200885259Y-118854238D02*
X200932878Y-118901857D01*
X201837640Y-119806619D02*
X201361450Y-119806619D01*
X201361450Y-119806619D02*
X201361450Y-118806619D01*
X202170974Y-119806619D02*
X202170974Y-118806619D01*
X202742402Y-119806619D02*
X202313831Y-119235190D01*
X202742402Y-118806619D02*
X202170974Y-119378047D01*
X203170974Y-119806619D02*
X203170974Y-118806619D01*
X203647164Y-119806619D02*
X203647164Y-118806619D01*
X203647164Y-118806619D02*
X204218592Y-119806619D01*
X204218592Y-119806619D02*
X204218592Y-118806619D01*
X204694783Y-119806619D02*
X204694783Y-118806619D01*
X204694783Y-119282809D02*
X205266211Y-119282809D01*
X205266211Y-119806619D02*
X205266211Y-118806619D01*
X200932878Y-104530119D02*
X200599545Y-104053928D01*
X200361450Y-104530119D02*
X200361450Y-103530119D01*
X200361450Y-103530119D02*
X200742402Y-103530119D01*
X200742402Y-103530119D02*
X200837640Y-103577738D01*
X200837640Y-103577738D02*
X200885259Y-103625357D01*
X200885259Y-103625357D02*
X200932878Y-103720595D01*
X200932878Y-103720595D02*
X200932878Y-103863452D01*
X200932878Y-103863452D02*
X200885259Y-103958690D01*
X200885259Y-103958690D02*
X200837640Y-104006309D01*
X200837640Y-104006309D02*
X200742402Y-104053928D01*
X200742402Y-104053928D02*
X200361450Y-104053928D01*
X201361450Y-104530119D02*
X201361450Y-103530119D01*
X201361450Y-103530119D02*
X201599545Y-103530119D01*
X201599545Y-103530119D02*
X201742402Y-103577738D01*
X201742402Y-103577738D02*
X201837640Y-103672976D01*
X201837640Y-103672976D02*
X201885259Y-103768214D01*
X201885259Y-103768214D02*
X201932878Y-103958690D01*
X201932878Y-103958690D02*
X201932878Y-104101547D01*
X201932878Y-104101547D02*
X201885259Y-104292023D01*
X201885259Y-104292023D02*
X201837640Y-104387261D01*
X201837640Y-104387261D02*
X201742402Y-104482500D01*
X201742402Y-104482500D02*
X201599545Y-104530119D01*
X201599545Y-104530119D02*
X201361450Y-104530119D01*
X189980497Y-127141678D02*
X189980497Y-125641678D01*
X189980497Y-125641678D02*
X190551926Y-125641678D01*
X190551926Y-125641678D02*
X190694783Y-125713107D01*
X190694783Y-125713107D02*
X190766212Y-125784535D01*
X190766212Y-125784535D02*
X190837640Y-125927392D01*
X190837640Y-125927392D02*
X190837640Y-126141678D01*
X190837640Y-126141678D02*
X190766212Y-126284535D01*
X190766212Y-126284535D02*
X190694783Y-126355964D01*
X190694783Y-126355964D02*
X190551926Y-126427392D01*
X190551926Y-126427392D02*
X189980497Y-126427392D01*
X192123355Y-127141678D02*
X192123355Y-126355964D01*
X192123355Y-126355964D02*
X192051926Y-126213107D01*
X192051926Y-126213107D02*
X191909069Y-126141678D01*
X191909069Y-126141678D02*
X191623355Y-126141678D01*
X191623355Y-126141678D02*
X191480497Y-126213107D01*
X192123355Y-127070250D02*
X191980497Y-127141678D01*
X191980497Y-127141678D02*
X191623355Y-127141678D01*
X191623355Y-127141678D02*
X191480497Y-127070250D01*
X191480497Y-127070250D02*
X191409069Y-126927392D01*
X191409069Y-126927392D02*
X191409069Y-126784535D01*
X191409069Y-126784535D02*
X191480497Y-126641678D01*
X191480497Y-126641678D02*
X191623355Y-126570250D01*
X191623355Y-126570250D02*
X191980497Y-126570250D01*
X191980497Y-126570250D02*
X192123355Y-126498821D01*
X192837640Y-127141678D02*
X192837640Y-126141678D01*
X192837640Y-125641678D02*
X192766212Y-125713107D01*
X192766212Y-125713107D02*
X192837640Y-125784535D01*
X192837640Y-125784535D02*
X192909069Y-125713107D01*
X192909069Y-125713107D02*
X192837640Y-125641678D01*
X192837640Y-125641678D02*
X192837640Y-125784535D01*
X193551926Y-126141678D02*
X193551926Y-127141678D01*
X193551926Y-126284535D02*
X193623355Y-126213107D01*
X193623355Y-126213107D02*
X193766212Y-126141678D01*
X193766212Y-126141678D02*
X193980498Y-126141678D01*
X193980498Y-126141678D02*
X194123355Y-126213107D01*
X194123355Y-126213107D02*
X194194784Y-126355964D01*
X194194784Y-126355964D02*
X194194784Y-127141678D01*
X194694784Y-126141678D02*
X195266212Y-126141678D01*
X194909069Y-127141678D02*
X194909069Y-125855964D01*
X194909069Y-125855964D02*
X194980498Y-125713107D01*
X194980498Y-125713107D02*
X195123355Y-125641678D01*
X195123355Y-125641678D02*
X195266212Y-125641678D01*
X196409070Y-126141678D02*
X196409070Y-127141678D01*
X195766212Y-126141678D02*
X195766212Y-126927392D01*
X195766212Y-126927392D02*
X195837641Y-127070250D01*
X195837641Y-127070250D02*
X195980498Y-127141678D01*
X195980498Y-127141678D02*
X196194784Y-127141678D01*
X196194784Y-127141678D02*
X196337641Y-127070250D01*
X196337641Y-127070250D02*
X196409070Y-126998821D01*
X197337641Y-127141678D02*
X197194784Y-127070250D01*
X197194784Y-127070250D02*
X197123355Y-126927392D01*
X197123355Y-126927392D02*
X197123355Y-125641678D01*
X197909069Y-127141678D02*
X197909069Y-125641678D01*
X197909069Y-125641678D02*
X198266212Y-125641678D01*
X198266212Y-125641678D02*
X198480498Y-125713107D01*
X198480498Y-125713107D02*
X198623355Y-125855964D01*
X198623355Y-125855964D02*
X198694784Y-125998821D01*
X198694784Y-125998821D02*
X198766212Y-126284535D01*
X198766212Y-126284535D02*
X198766212Y-126498821D01*
X198766212Y-126498821D02*
X198694784Y-126784535D01*
X198694784Y-126784535D02*
X198623355Y-126927392D01*
X198623355Y-126927392D02*
X198480498Y-127070250D01*
X198480498Y-127070250D02*
X198266212Y-127141678D01*
X198266212Y-127141678D02*
X197909069Y-127141678D01*
X199409069Y-127141678D02*
X199409069Y-126141678D01*
X199409069Y-125641678D02*
X199337641Y-125713107D01*
X199337641Y-125713107D02*
X199409069Y-125784535D01*
X199409069Y-125784535D02*
X199480498Y-125713107D01*
X199480498Y-125713107D02*
X199409069Y-125641678D01*
X199409069Y-125641678D02*
X199409069Y-125784535D01*
X200337641Y-127141678D02*
X200194784Y-127070250D01*
X200194784Y-127070250D02*
X200123355Y-126998821D01*
X200123355Y-126998821D02*
X200051927Y-126855964D01*
X200051927Y-126855964D02*
X200051927Y-126427392D01*
X200051927Y-126427392D02*
X200123355Y-126284535D01*
X200123355Y-126284535D02*
X200194784Y-126213107D01*
X200194784Y-126213107D02*
X200337641Y-126141678D01*
X200337641Y-126141678D02*
X200551927Y-126141678D01*
X200551927Y-126141678D02*
X200694784Y-126213107D01*
X200694784Y-126213107D02*
X200766213Y-126284535D01*
X200766213Y-126284535D02*
X200837641Y-126427392D01*
X200837641Y-126427392D02*
X200837641Y-126855964D01*
X200837641Y-126855964D02*
X200766213Y-126998821D01*
X200766213Y-126998821D02*
X200694784Y-127070250D01*
X200694784Y-127070250D02*
X200551927Y-127141678D01*
X200551927Y-127141678D02*
X200337641Y-127141678D01*
X202123356Y-127141678D02*
X202123356Y-125641678D01*
X202123356Y-127070250D02*
X201980498Y-127141678D01*
X201980498Y-127141678D02*
X201694784Y-127141678D01*
X201694784Y-127141678D02*
X201551927Y-127070250D01*
X201551927Y-127070250D02*
X201480498Y-126998821D01*
X201480498Y-126998821D02*
X201409070Y-126855964D01*
X201409070Y-126855964D02*
X201409070Y-126427392D01*
X201409070Y-126427392D02*
X201480498Y-126284535D01*
X201480498Y-126284535D02*
X201551927Y-126213107D01*
X201551927Y-126213107D02*
X201694784Y-126141678D01*
X201694784Y-126141678D02*
X201980498Y-126141678D01*
X201980498Y-126141678D02*
X202123356Y-126213107D01*
X203409070Y-127070250D02*
X203266213Y-127141678D01*
X203266213Y-127141678D02*
X202980499Y-127141678D01*
X202980499Y-127141678D02*
X202837641Y-127070250D01*
X202837641Y-127070250D02*
X202766213Y-126927392D01*
X202766213Y-126927392D02*
X202766213Y-126355964D01*
X202766213Y-126355964D02*
X202837641Y-126213107D01*
X202837641Y-126213107D02*
X202980499Y-126141678D01*
X202980499Y-126141678D02*
X203266213Y-126141678D01*
X203266213Y-126141678D02*
X203409070Y-126213107D01*
X203409070Y-126213107D02*
X203480499Y-126355964D01*
X203480499Y-126355964D02*
X203480499Y-126498821D01*
X203480499Y-126498821D02*
X202766213Y-126641678D01*
X204051927Y-127070250D02*
X204194784Y-127141678D01*
X204194784Y-127141678D02*
X204480498Y-127141678D01*
X204480498Y-127141678D02*
X204623355Y-127070250D01*
X204623355Y-127070250D02*
X204694784Y-126927392D01*
X204694784Y-126927392D02*
X204694784Y-126855964D01*
X204694784Y-126855964D02*
X204623355Y-126713107D01*
X204623355Y-126713107D02*
X204480498Y-126641678D01*
X204480498Y-126641678D02*
X204266213Y-126641678D01*
X204266213Y-126641678D02*
X204123355Y-126570250D01*
X204123355Y-126570250D02*
X204051927Y-126427392D01*
X204051927Y-126427392D02*
X204051927Y-126355964D01*
X204051927Y-126355964D02*
X204123355Y-126213107D01*
X204123355Y-126213107D02*
X204266213Y-126141678D01*
X204266213Y-126141678D02*
X204480498Y-126141678D01*
X204480498Y-126141678D02*
X204623355Y-126213107D01*
X190480497Y-128770964D02*
X190694783Y-128842392D01*
X190694783Y-128842392D02*
X190766212Y-128913821D01*
X190766212Y-128913821D02*
X190837640Y-129056678D01*
X190837640Y-129056678D02*
X190837640Y-129270964D01*
X190837640Y-129270964D02*
X190766212Y-129413821D01*
X190766212Y-129413821D02*
X190694783Y-129485250D01*
X190694783Y-129485250D02*
X190551926Y-129556678D01*
X190551926Y-129556678D02*
X189980497Y-129556678D01*
X189980497Y-129556678D02*
X189980497Y-128056678D01*
X189980497Y-128056678D02*
X190480497Y-128056678D01*
X190480497Y-128056678D02*
X190623355Y-128128107D01*
X190623355Y-128128107D02*
X190694783Y-128199535D01*
X190694783Y-128199535D02*
X190766212Y-128342392D01*
X190766212Y-128342392D02*
X190766212Y-128485250D01*
X190766212Y-128485250D02*
X190694783Y-128628107D01*
X190694783Y-128628107D02*
X190623355Y-128699535D01*
X190623355Y-128699535D02*
X190480497Y-128770964D01*
X190480497Y-128770964D02*
X189980497Y-128770964D01*
X192051926Y-129485250D02*
X191909069Y-129556678D01*
X191909069Y-129556678D02*
X191623355Y-129556678D01*
X191623355Y-129556678D02*
X191480497Y-129485250D01*
X191480497Y-129485250D02*
X191409069Y-129342392D01*
X191409069Y-129342392D02*
X191409069Y-128770964D01*
X191409069Y-128770964D02*
X191480497Y-128628107D01*
X191480497Y-128628107D02*
X191623355Y-128556678D01*
X191623355Y-128556678D02*
X191909069Y-128556678D01*
X191909069Y-128556678D02*
X192051926Y-128628107D01*
X192051926Y-128628107D02*
X192123355Y-128770964D01*
X192123355Y-128770964D02*
X192123355Y-128913821D01*
X192123355Y-128913821D02*
X191409069Y-129056678D01*
X193409069Y-129556678D02*
X193409069Y-128770964D01*
X193409069Y-128770964D02*
X193337640Y-128628107D01*
X193337640Y-128628107D02*
X193194783Y-128556678D01*
X193194783Y-128556678D02*
X192909069Y-128556678D01*
X192909069Y-128556678D02*
X192766211Y-128628107D01*
X193409069Y-129485250D02*
X193266211Y-129556678D01*
X193266211Y-129556678D02*
X192909069Y-129556678D01*
X192909069Y-129556678D02*
X192766211Y-129485250D01*
X192766211Y-129485250D02*
X192694783Y-129342392D01*
X192694783Y-129342392D02*
X192694783Y-129199535D01*
X192694783Y-129199535D02*
X192766211Y-129056678D01*
X192766211Y-129056678D02*
X192909069Y-128985250D01*
X192909069Y-128985250D02*
X193266211Y-128985250D01*
X193266211Y-128985250D02*
X193409069Y-128913821D01*
X194123354Y-128556678D02*
X194123354Y-129556678D01*
X194123354Y-128699535D02*
X194194783Y-128628107D01*
X194194783Y-128628107D02*
X194337640Y-128556678D01*
X194337640Y-128556678D02*
X194551926Y-128556678D01*
X194551926Y-128556678D02*
X194694783Y-128628107D01*
X194694783Y-128628107D02*
X194766212Y-128770964D01*
X194766212Y-128770964D02*
X194766212Y-129556678D01*
X195337640Y-128056678D02*
X196337640Y-128056678D01*
X196337640Y-128056678D02*
X195337640Y-129556678D01*
X195337640Y-129556678D02*
X196337640Y-129556678D01*
X197480497Y-129485250D02*
X197337640Y-129556678D01*
X197337640Y-129556678D02*
X197051926Y-129556678D01*
X197051926Y-129556678D02*
X196909068Y-129485250D01*
X196909068Y-129485250D02*
X196837640Y-129342392D01*
X196837640Y-129342392D02*
X196837640Y-128770964D01*
X196837640Y-128770964D02*
X196909068Y-128628107D01*
X196909068Y-128628107D02*
X197051926Y-128556678D01*
X197051926Y-128556678D02*
X197337640Y-128556678D01*
X197337640Y-128556678D02*
X197480497Y-128628107D01*
X197480497Y-128628107D02*
X197551926Y-128770964D01*
X197551926Y-128770964D02*
X197551926Y-128913821D01*
X197551926Y-128913821D02*
X196837640Y-129056678D01*
X198766211Y-129485250D02*
X198623354Y-129556678D01*
X198623354Y-129556678D02*
X198337640Y-129556678D01*
X198337640Y-129556678D02*
X198194782Y-129485250D01*
X198194782Y-129485250D02*
X198123354Y-129342392D01*
X198123354Y-129342392D02*
X198123354Y-128770964D01*
X198123354Y-128770964D02*
X198194782Y-128628107D01*
X198194782Y-128628107D02*
X198337640Y-128556678D01*
X198337640Y-128556678D02*
X198623354Y-128556678D01*
X198623354Y-128556678D02*
X198766211Y-128628107D01*
X198766211Y-128628107D02*
X198837640Y-128770964D01*
X198837640Y-128770964D02*
X198837640Y-128913821D01*
X198837640Y-128913821D02*
X198123354Y-129056678D01*
X200361450Y-112293369D02*
X200361450Y-111293369D01*
X201028116Y-111293369D02*
X201218592Y-111293369D01*
X201218592Y-111293369D02*
X201313830Y-111340988D01*
X201313830Y-111340988D02*
X201409068Y-111436226D01*
X201409068Y-111436226D02*
X201456687Y-111626702D01*
X201456687Y-111626702D02*
X201456687Y-111960035D01*
X201456687Y-111960035D02*
X201409068Y-112150511D01*
X201409068Y-112150511D02*
X201313830Y-112245750D01*
X201313830Y-112245750D02*
X201218592Y-112293369D01*
X201218592Y-112293369D02*
X201028116Y-112293369D01*
X201028116Y-112293369D02*
X200932878Y-112245750D01*
X200932878Y-112245750D02*
X200837640Y-112150511D01*
X200837640Y-112150511D02*
X200790021Y-111960035D01*
X200790021Y-111960035D02*
X200790021Y-111626702D01*
X200790021Y-111626702D02*
X200837640Y-111436226D01*
X200837640Y-111436226D02*
X200932878Y-111340988D01*
X200932878Y-111340988D02*
X201028116Y-111293369D01*
X202456687Y-112293369D02*
X202123354Y-111817178D01*
X201885259Y-112293369D02*
X201885259Y-111293369D01*
X201885259Y-111293369D02*
X202266211Y-111293369D01*
X202266211Y-111293369D02*
X202361449Y-111340988D01*
X202361449Y-111340988D02*
X202409068Y-111388607D01*
X202409068Y-111388607D02*
X202456687Y-111483845D01*
X202456687Y-111483845D02*
X202456687Y-111626702D01*
X202456687Y-111626702D02*
X202409068Y-111721940D01*
X202409068Y-111721940D02*
X202361449Y-111769559D01*
X202361449Y-111769559D02*
X202266211Y-111817178D01*
X202266211Y-111817178D02*
X201885259Y-111817178D01*
X203551925Y-112388607D02*
X203456687Y-112340988D01*
X203456687Y-112340988D02*
X203361449Y-112245750D01*
X203361449Y-112245750D02*
X203218592Y-112102892D01*
X203218592Y-112102892D02*
X203123354Y-112055273D01*
X203123354Y-112055273D02*
X203028116Y-112055273D01*
X203075735Y-112293369D02*
X202980497Y-112245750D01*
X202980497Y-112245750D02*
X202885259Y-112150511D01*
X202885259Y-112150511D02*
X202837640Y-111960035D01*
X202837640Y-111960035D02*
X202837640Y-111626702D01*
X202837640Y-111626702D02*
X202885259Y-111436226D01*
X202885259Y-111436226D02*
X202980497Y-111340988D01*
X202980497Y-111340988D02*
X203075735Y-111293369D01*
X203075735Y-111293369D02*
X203266211Y-111293369D01*
X203266211Y-111293369D02*
X203361449Y-111340988D01*
X203361449Y-111340988D02*
X203456687Y-111436226D01*
X203456687Y-111436226D02*
X203504306Y-111626702D01*
X203504306Y-111626702D02*
X203504306Y-111960035D01*
X203504306Y-111960035D02*
X203456687Y-112150511D01*
X203456687Y-112150511D02*
X203361449Y-112245750D01*
X203361449Y-112245750D02*
X203266211Y-112293369D01*
X203266211Y-112293369D02*
X203075735Y-112293369D01*
X200266212Y-106117869D02*
X200504307Y-107117869D01*
X200504307Y-107117869D02*
X200694783Y-106403583D01*
X200694783Y-106403583D02*
X200885259Y-107117869D01*
X200885259Y-107117869D02*
X201123355Y-106117869D01*
X202075735Y-107117869D02*
X201742402Y-106641678D01*
X201504307Y-107117869D02*
X201504307Y-106117869D01*
X201504307Y-106117869D02*
X201885259Y-106117869D01*
X201885259Y-106117869D02*
X201980497Y-106165488D01*
X201980497Y-106165488D02*
X202028116Y-106213107D01*
X202028116Y-106213107D02*
X202075735Y-106308345D01*
X202075735Y-106308345D02*
X202075735Y-106451202D01*
X202075735Y-106451202D02*
X202028116Y-106546440D01*
X202028116Y-106546440D02*
X201980497Y-106594059D01*
X201980497Y-106594059D02*
X201885259Y-106641678D01*
X201885259Y-106641678D02*
X201504307Y-106641678D01*
X200361450Y-109705619D02*
X200361450Y-108705619D01*
X200361450Y-108705619D02*
X200694783Y-109419904D01*
X200694783Y-109419904D02*
X201028116Y-108705619D01*
X201028116Y-108705619D02*
X201028116Y-109705619D01*
X202075735Y-109705619D02*
X201742402Y-109229428D01*
X201504307Y-109705619D02*
X201504307Y-108705619D01*
X201504307Y-108705619D02*
X201885259Y-108705619D01*
X201885259Y-108705619D02*
X201980497Y-108753238D01*
X201980497Y-108753238D02*
X202028116Y-108800857D01*
X202028116Y-108800857D02*
X202075735Y-108896095D01*
X202075735Y-108896095D02*
X202075735Y-109038952D01*
X202075735Y-109038952D02*
X202028116Y-109134190D01*
X202028116Y-109134190D02*
X201980497Y-109181809D01*
X201980497Y-109181809D02*
X201885259Y-109229428D01*
X201885259Y-109229428D02*
X201504307Y-109229428D01*
X202504307Y-109181809D02*
X202837640Y-109181809D01*
X202980497Y-109705619D02*
X202504307Y-109705619D01*
X202504307Y-109705619D02*
X202504307Y-108705619D01*
X202504307Y-108705619D02*
X202980497Y-108705619D01*
X204075735Y-109800857D02*
X203980497Y-109753238D01*
X203980497Y-109753238D02*
X203885259Y-109658000D01*
X203885259Y-109658000D02*
X203742402Y-109515142D01*
X203742402Y-109515142D02*
X203647164Y-109467523D01*
X203647164Y-109467523D02*
X203551926Y-109467523D01*
X203599545Y-109705619D02*
X203504307Y-109658000D01*
X203504307Y-109658000D02*
X203409069Y-109562761D01*
X203409069Y-109562761D02*
X203361450Y-109372285D01*
X203361450Y-109372285D02*
X203361450Y-109038952D01*
X203361450Y-109038952D02*
X203409069Y-108848476D01*
X203409069Y-108848476D02*
X203504307Y-108753238D01*
X203504307Y-108753238D02*
X203599545Y-108705619D01*
X203599545Y-108705619D02*
X203790021Y-108705619D01*
X203790021Y-108705619D02*
X203885259Y-108753238D01*
X203885259Y-108753238D02*
X203980497Y-108848476D01*
X203980497Y-108848476D02*
X204028116Y-109038952D01*
X204028116Y-109038952D02*
X204028116Y-109372285D01*
X204028116Y-109372285D02*
X203980497Y-109562761D01*
X203980497Y-109562761D02*
X203885259Y-109658000D01*
X203885259Y-109658000D02*
X203790021Y-109705619D01*
X203790021Y-109705619D02*
X203599545Y-109705619D01*
X201063831Y-61082154D02*
X201540021Y-61082154D01*
X200968593Y-61367869D02*
X201301926Y-60367869D01*
X201301926Y-60367869D02*
X201635259Y-61367869D01*
X202492402Y-61367869D02*
X201920974Y-61367869D01*
X202206688Y-61367869D02*
X202206688Y-60367869D01*
X202206688Y-60367869D02*
X202111450Y-60510726D01*
X202111450Y-60510726D02*
X202016212Y-60605964D01*
X202016212Y-60605964D02*
X201920974Y-60653583D01*
X203397164Y-60367869D02*
X202920974Y-60367869D01*
X202920974Y-60367869D02*
X202873355Y-60844059D01*
X202873355Y-60844059D02*
X202920974Y-60796440D01*
X202920974Y-60796440D02*
X203016212Y-60748821D01*
X203016212Y-60748821D02*
X203254307Y-60748821D01*
X203254307Y-60748821D02*
X203349545Y-60796440D01*
X203349545Y-60796440D02*
X203397164Y-60844059D01*
X203397164Y-60844059D02*
X203444783Y-60939297D01*
X203444783Y-60939297D02*
X203444783Y-61177392D01*
X203444783Y-61177392D02*
X203397164Y-61272630D01*
X203397164Y-61272630D02*
X203349545Y-61320250D01*
X203349545Y-61320250D02*
X203254307Y-61367869D01*
X203254307Y-61367869D02*
X203016212Y-61367869D01*
X203016212Y-61367869D02*
X202920974Y-61320250D01*
X202920974Y-61320250D02*
X202873355Y-61272630D01*
X128182878Y-130617869D02*
X127849545Y-130141678D01*
X127611450Y-130617869D02*
X127611450Y-129617869D01*
X127611450Y-129617869D02*
X127992402Y-129617869D01*
X127992402Y-129617869D02*
X128087640Y-129665488D01*
X128087640Y-129665488D02*
X128135259Y-129713107D01*
X128135259Y-129713107D02*
X128182878Y-129808345D01*
X128182878Y-129808345D02*
X128182878Y-129951202D01*
X128182878Y-129951202D02*
X128135259Y-130046440D01*
X128135259Y-130046440D02*
X128087640Y-130094059D01*
X128087640Y-130094059D02*
X127992402Y-130141678D01*
X127992402Y-130141678D02*
X127611450Y-130141678D01*
X128611450Y-130094059D02*
X128944783Y-130094059D01*
X129087640Y-130617869D02*
X128611450Y-130617869D01*
X128611450Y-130617869D02*
X128611450Y-129617869D01*
X128611450Y-129617869D02*
X129087640Y-129617869D01*
X129468593Y-130570250D02*
X129611450Y-130617869D01*
X129611450Y-130617869D02*
X129849545Y-130617869D01*
X129849545Y-130617869D02*
X129944783Y-130570250D01*
X129944783Y-130570250D02*
X129992402Y-130522630D01*
X129992402Y-130522630D02*
X130040021Y-130427392D01*
X130040021Y-130427392D02*
X130040021Y-130332154D01*
X130040021Y-130332154D02*
X129992402Y-130236916D01*
X129992402Y-130236916D02*
X129944783Y-130189297D01*
X129944783Y-130189297D02*
X129849545Y-130141678D01*
X129849545Y-130141678D02*
X129659069Y-130094059D01*
X129659069Y-130094059D02*
X129563831Y-130046440D01*
X129563831Y-130046440D02*
X129516212Y-129998821D01*
X129516212Y-129998821D02*
X129468593Y-129903583D01*
X129468593Y-129903583D02*
X129468593Y-129808345D01*
X129468593Y-129808345D02*
X129516212Y-129713107D01*
X129516212Y-129713107D02*
X129563831Y-129665488D01*
X129563831Y-129665488D02*
X129659069Y-129617869D01*
X129659069Y-129617869D02*
X129897164Y-129617869D01*
X129897164Y-129617869D02*
X130040021Y-129665488D01*
X130468593Y-130094059D02*
X130801926Y-130094059D01*
X130944783Y-130617869D02*
X130468593Y-130617869D01*
X130468593Y-130617869D02*
X130468593Y-129617869D01*
X130468593Y-129617869D02*
X130944783Y-129617869D01*
X131230498Y-129617869D02*
X131801926Y-129617869D01*
X131516212Y-130617869D02*
X131516212Y-129617869D01*
X132849546Y-130570250D02*
X132992403Y-130617869D01*
X132992403Y-130617869D02*
X133230498Y-130617869D01*
X133230498Y-130617869D02*
X133325736Y-130570250D01*
X133325736Y-130570250D02*
X133373355Y-130522630D01*
X133373355Y-130522630D02*
X133420974Y-130427392D01*
X133420974Y-130427392D02*
X133420974Y-130332154D01*
X133420974Y-130332154D02*
X133373355Y-130236916D01*
X133373355Y-130236916D02*
X133325736Y-130189297D01*
X133325736Y-130189297D02*
X133230498Y-130141678D01*
X133230498Y-130141678D02*
X133040022Y-130094059D01*
X133040022Y-130094059D02*
X132944784Y-130046440D01*
X132944784Y-130046440D02*
X132897165Y-129998821D01*
X132897165Y-129998821D02*
X132849546Y-129903583D01*
X132849546Y-129903583D02*
X132849546Y-129808345D01*
X132849546Y-129808345D02*
X132897165Y-129713107D01*
X132897165Y-129713107D02*
X132944784Y-129665488D01*
X132944784Y-129665488D02*
X133040022Y-129617869D01*
X133040022Y-129617869D02*
X133278117Y-129617869D01*
X133278117Y-129617869D02*
X133420974Y-129665488D01*
X133754308Y-129617869D02*
X133992403Y-130617869D01*
X133992403Y-130617869D02*
X134182879Y-129903583D01*
X134182879Y-129903583D02*
X134373355Y-130617869D01*
X134373355Y-130617869D02*
X134611451Y-129617869D01*
X106218593Y-61007869D02*
X106551926Y-62007869D01*
X106551926Y-62007869D02*
X106885259Y-61007869D01*
X107790021Y-61912630D02*
X107742402Y-61960250D01*
X107742402Y-61960250D02*
X107599545Y-62007869D01*
X107599545Y-62007869D02*
X107504307Y-62007869D01*
X107504307Y-62007869D02*
X107361450Y-61960250D01*
X107361450Y-61960250D02*
X107266212Y-61865011D01*
X107266212Y-61865011D02*
X107218593Y-61769773D01*
X107218593Y-61769773D02*
X107170974Y-61579297D01*
X107170974Y-61579297D02*
X107170974Y-61436440D01*
X107170974Y-61436440D02*
X107218593Y-61245964D01*
X107218593Y-61245964D02*
X107266212Y-61150726D01*
X107266212Y-61150726D02*
X107361450Y-61055488D01*
X107361450Y-61055488D02*
X107504307Y-61007869D01*
X107504307Y-61007869D02*
X107599545Y-61007869D01*
X107599545Y-61007869D02*
X107742402Y-61055488D01*
X107742402Y-61055488D02*
X107790021Y-61103107D01*
X108790021Y-61912630D02*
X108742402Y-61960250D01*
X108742402Y-61960250D02*
X108599545Y-62007869D01*
X108599545Y-62007869D02*
X108504307Y-62007869D01*
X108504307Y-62007869D02*
X108361450Y-61960250D01*
X108361450Y-61960250D02*
X108266212Y-61865011D01*
X108266212Y-61865011D02*
X108218593Y-61769773D01*
X108218593Y-61769773D02*
X108170974Y-61579297D01*
X108170974Y-61579297D02*
X108170974Y-61436440D01*
X108170974Y-61436440D02*
X108218593Y-61245964D01*
X108218593Y-61245964D02*
X108266212Y-61150726D01*
X108266212Y-61150726D02*
X108361450Y-61055488D01*
X108361450Y-61055488D02*
X108504307Y-61007869D01*
X108504307Y-61007869D02*
X108599545Y-61007869D01*
X108599545Y-61007869D02*
X108742402Y-61055488D01*
X108742402Y-61055488D02*
X108790021Y-61103107D01*
X106885259Y-62665488D02*
X106790021Y-62617869D01*
X106790021Y-62617869D02*
X106647164Y-62617869D01*
X106647164Y-62617869D02*
X106504307Y-62665488D01*
X106504307Y-62665488D02*
X106409069Y-62760726D01*
X106409069Y-62760726D02*
X106361450Y-62855964D01*
X106361450Y-62855964D02*
X106313831Y-63046440D01*
X106313831Y-63046440D02*
X106313831Y-63189297D01*
X106313831Y-63189297D02*
X106361450Y-63379773D01*
X106361450Y-63379773D02*
X106409069Y-63475011D01*
X106409069Y-63475011D02*
X106504307Y-63570250D01*
X106504307Y-63570250D02*
X106647164Y-63617869D01*
X106647164Y-63617869D02*
X106742402Y-63617869D01*
X106742402Y-63617869D02*
X106885259Y-63570250D01*
X106885259Y-63570250D02*
X106932878Y-63522630D01*
X106932878Y-63522630D02*
X106932878Y-63189297D01*
X106932878Y-63189297D02*
X106742402Y-63189297D01*
X107361450Y-63617869D02*
X107361450Y-62617869D01*
X107361450Y-62617869D02*
X107932878Y-63617869D01*
X107932878Y-63617869D02*
X107932878Y-62617869D01*
X108409069Y-63617869D02*
X108409069Y-62617869D01*
X108409069Y-62617869D02*
X108647164Y-62617869D01*
X108647164Y-62617869D02*
X108790021Y-62665488D01*
X108790021Y-62665488D02*
X108885259Y-62760726D01*
X108885259Y-62760726D02*
X108932878Y-62855964D01*
X108932878Y-62855964D02*
X108980497Y-63046440D01*
X108980497Y-63046440D02*
X108980497Y-63189297D01*
X108980497Y-63189297D02*
X108932878Y-63379773D01*
X108932878Y-63379773D02*
X108885259Y-63475011D01*
X108885259Y-63475011D02*
X108790021Y-63570250D01*
X108790021Y-63570250D02*
X108647164Y-63617869D01*
X108647164Y-63617869D02*
X108409069Y-63617869D01*
D11*
%TO.C,C7*%
X171350000Y-97690000D02*
X171350000Y-100430000D01*
X171350000Y-97690000D02*
X176590000Y-97690000D01*
X171350000Y-100430000D02*
X176590000Y-100430000D01*
X176590000Y-97690000D02*
X176590000Y-100430000D01*
%TO.C,R1*%
X111430000Y-127000000D02*
X112380000Y-127000000D01*
X112380000Y-126080000D02*
X112380000Y-127920000D01*
X112380000Y-127920000D02*
X116220000Y-127920000D01*
X116220000Y-126080000D02*
X112380000Y-126080000D01*
X116220000Y-127920000D02*
X116220000Y-126080000D01*
X117170000Y-127000000D02*
X116220000Y-127000000D01*
%TO.C,C10*%
X153770000Y-120590000D02*
X151030000Y-120590000D01*
X153770000Y-120590000D02*
X153770000Y-125830000D01*
X151030000Y-120590000D02*
X151030000Y-125830000D01*
X153770000Y-125830000D02*
X151030000Y-125830000D01*
%TO.C,J4*%
X110430000Y-62230000D02*
X110430000Y-64830000D01*
X110430000Y-62230000D02*
X113090000Y-62230000D01*
X110430000Y-64830000D02*
X113090000Y-64830000D01*
X111760000Y-59630000D02*
X113090000Y-59630000D01*
X113090000Y-59630000D02*
X113090000Y-60960000D01*
X113090000Y-62230000D02*
X113090000Y-64830000D01*
%TO.C,U8*%
X149210000Y-111660000D02*
X137060000Y-111660000D01*
X137060000Y-111660000D02*
X137060000Y-123810000D01*
X149960000Y-123810000D02*
X149960000Y-112410000D01*
X137810000Y-124560000D02*
X149210000Y-124560000D01*
X149960000Y-112410000D02*
G75*
G03*
X149210000Y-111660000I-750000J0D01*
G01*
X149210000Y-124560000D02*
G75*
G03*
X149960000Y-123810000I0J750000D01*
G01*
X137060000Y-123810000D02*
G75*
G03*
X137810000Y-124560000I750000J0D01*
G01*
%TO.C,J5*%
X130810000Y-128330000D02*
X133410000Y-128330000D01*
X130810000Y-128330000D02*
X130810000Y-125670000D01*
X133410000Y-128330000D02*
X133410000Y-125670000D01*
X128210000Y-127000000D02*
X128210000Y-125670000D01*
X128210000Y-125670000D02*
X129540000Y-125670000D01*
X130810000Y-125670000D02*
X133410000Y-125670000D01*
%TO.C,J2*%
X110430000Y-97790000D02*
X110430000Y-115630000D01*
X110430000Y-97790000D02*
X113090000Y-97790000D01*
X110430000Y-115630000D02*
X113090000Y-115630000D01*
X111760000Y-95190000D02*
X113090000Y-95190000D01*
X113090000Y-95190000D02*
X113090000Y-96520000D01*
X113090000Y-97790000D02*
X113090000Y-115630000D01*
%TO.C,C5*%
X158650000Y-97690000D02*
X158650000Y-100430000D01*
X158650000Y-97690000D02*
X163890000Y-97690000D01*
X158650000Y-100430000D02*
X163890000Y-100430000D01*
X163890000Y-97690000D02*
X163890000Y-100430000D01*
%TO.C,C9*%
X191710000Y-54510000D02*
X191710000Y-57250000D01*
X191710000Y-54510000D02*
X196950000Y-54510000D01*
X191710000Y-57250000D02*
X196950000Y-57250000D01*
X196950000Y-54510000D02*
X196950000Y-57250000D01*
%TO.C,SW1*%
X128580000Y-118630000D02*
X128580000Y-120130000D01*
X129830000Y-122630000D02*
X134330000Y-122630000D01*
X134330000Y-116130000D02*
X129830000Y-116130000D01*
X135580000Y-120130000D02*
X135580000Y-118630000D01*
%TO.C,U5*%
X138320000Y-59630000D02*
X138320000Y-110550000D01*
X138320000Y-110550000D02*
X151240000Y-110550000D01*
X143780000Y-59630000D02*
X138320000Y-59630000D01*
X151240000Y-59630000D02*
X145780000Y-59630000D01*
X151240000Y-110550000D02*
X151240000Y-59630000D01*
X143780000Y-59630000D02*
G75*
G03*
X145780000Y-59630000I1000000J0D01*
G01*
%TO.C,C3*%
X107955225Y-69645000D02*
X108455225Y-69645000D01*
X108205225Y-69395000D02*
X108205225Y-69895000D01*
X110760000Y-68540000D02*
X110760000Y-70080000D01*
X110760000Y-72160000D02*
X110760000Y-73700000D01*
X110800000Y-68540000D02*
X110800000Y-70080000D01*
X110800000Y-72160000D02*
X110800000Y-73700000D01*
X110840000Y-68541000D02*
X110840000Y-70080000D01*
X110840000Y-72160000D02*
X110840000Y-73699000D01*
X110880000Y-68542000D02*
X110880000Y-70080000D01*
X110880000Y-72160000D02*
X110880000Y-73698000D01*
X110920000Y-68544000D02*
X110920000Y-70080000D01*
X110920000Y-72160000D02*
X110920000Y-73696000D01*
X110960000Y-68547000D02*
X110960000Y-70080000D01*
X110960000Y-72160000D02*
X110960000Y-73693000D01*
X111000000Y-68551000D02*
X111000000Y-70080000D01*
X111000000Y-72160000D02*
X111000000Y-73689000D01*
X111040000Y-68555000D02*
X111040000Y-70080000D01*
X111040000Y-72160000D02*
X111040000Y-73685000D01*
X111080000Y-68559000D02*
X111080000Y-70080000D01*
X111080000Y-72160000D02*
X111080000Y-73681000D01*
X111120000Y-68564000D02*
X111120000Y-70080000D01*
X111120000Y-72160000D02*
X111120000Y-73676000D01*
X111160000Y-68570000D02*
X111160000Y-70080000D01*
X111160000Y-72160000D02*
X111160000Y-73670000D01*
X111200000Y-68577000D02*
X111200000Y-70080000D01*
X111200000Y-72160000D02*
X111200000Y-73663000D01*
X111240000Y-68584000D02*
X111240000Y-70080000D01*
X111240000Y-72160000D02*
X111240000Y-73656000D01*
X111280000Y-68592000D02*
X111280000Y-70080000D01*
X111280000Y-72160000D02*
X111280000Y-73648000D01*
X111320000Y-68600000D02*
X111320000Y-70080000D01*
X111320000Y-72160000D02*
X111320000Y-73640000D01*
X111360000Y-68609000D02*
X111360000Y-70080000D01*
X111360000Y-72160000D02*
X111360000Y-73631000D01*
X111400000Y-68619000D02*
X111400000Y-70080000D01*
X111400000Y-72160000D02*
X111400000Y-73621000D01*
X111440000Y-68629000D02*
X111440000Y-70080000D01*
X111440000Y-72160000D02*
X111440000Y-73611000D01*
X111481000Y-68640000D02*
X111481000Y-70080000D01*
X111481000Y-72160000D02*
X111481000Y-73600000D01*
X111521000Y-68652000D02*
X111521000Y-70080000D01*
X111521000Y-72160000D02*
X111521000Y-73588000D01*
X111561000Y-68665000D02*
X111561000Y-70080000D01*
X111561000Y-72160000D02*
X111561000Y-73575000D01*
X111601000Y-68678000D02*
X111601000Y-70080000D01*
X111601000Y-72160000D02*
X111601000Y-73562000D01*
X111641000Y-68692000D02*
X111641000Y-70080000D01*
X111641000Y-72160000D02*
X111641000Y-73548000D01*
X111681000Y-68706000D02*
X111681000Y-70080000D01*
X111681000Y-72160000D02*
X111681000Y-73534000D01*
X111721000Y-68722000D02*
X111721000Y-70080000D01*
X111721000Y-72160000D02*
X111721000Y-73518000D01*
X111761000Y-68738000D02*
X111761000Y-70080000D01*
X111761000Y-72160000D02*
X111761000Y-73502000D01*
X111801000Y-68755000D02*
X111801000Y-70080000D01*
X111801000Y-72160000D02*
X111801000Y-73485000D01*
X111841000Y-68772000D02*
X111841000Y-70080000D01*
X111841000Y-72160000D02*
X111841000Y-73468000D01*
X111881000Y-68791000D02*
X111881000Y-70080000D01*
X111881000Y-72160000D02*
X111881000Y-73449000D01*
X111921000Y-68810000D02*
X111921000Y-70080000D01*
X111921000Y-72160000D02*
X111921000Y-73430000D01*
X111961000Y-68830000D02*
X111961000Y-70080000D01*
X111961000Y-72160000D02*
X111961000Y-73410000D01*
X112001000Y-68852000D02*
X112001000Y-70080000D01*
X112001000Y-72160000D02*
X112001000Y-73388000D01*
X112041000Y-68873000D02*
X112041000Y-70080000D01*
X112041000Y-72160000D02*
X112041000Y-73367000D01*
X112081000Y-68896000D02*
X112081000Y-70080000D01*
X112081000Y-72160000D02*
X112081000Y-73344000D01*
X112121000Y-68920000D02*
X112121000Y-70080000D01*
X112121000Y-72160000D02*
X112121000Y-73320000D01*
X112161000Y-68945000D02*
X112161000Y-70080000D01*
X112161000Y-72160000D02*
X112161000Y-73295000D01*
X112201000Y-68971000D02*
X112201000Y-70080000D01*
X112201000Y-72160000D02*
X112201000Y-73269000D01*
X112241000Y-68998000D02*
X112241000Y-70080000D01*
X112241000Y-72160000D02*
X112241000Y-73242000D01*
X112281000Y-69025000D02*
X112281000Y-70080000D01*
X112281000Y-72160000D02*
X112281000Y-73215000D01*
X112321000Y-69055000D02*
X112321000Y-70080000D01*
X112321000Y-72160000D02*
X112321000Y-73185000D01*
X112361000Y-69085000D02*
X112361000Y-70080000D01*
X112361000Y-72160000D02*
X112361000Y-73155000D01*
X112401000Y-69116000D02*
X112401000Y-70080000D01*
X112401000Y-72160000D02*
X112401000Y-73124000D01*
X112441000Y-69149000D02*
X112441000Y-70080000D01*
X112441000Y-72160000D02*
X112441000Y-73091000D01*
X112481000Y-69183000D02*
X112481000Y-70080000D01*
X112481000Y-72160000D02*
X112481000Y-73057000D01*
X112521000Y-69219000D02*
X112521000Y-70080000D01*
X112521000Y-72160000D02*
X112521000Y-73021000D01*
X112561000Y-69256000D02*
X112561000Y-70080000D01*
X112561000Y-72160000D02*
X112561000Y-72984000D01*
X112601000Y-69294000D02*
X112601000Y-70080000D01*
X112601000Y-72160000D02*
X112601000Y-72946000D01*
X112641000Y-69335000D02*
X112641000Y-70080000D01*
X112641000Y-72160000D02*
X112641000Y-72905000D01*
X112681000Y-69377000D02*
X112681000Y-70080000D01*
X112681000Y-72160000D02*
X112681000Y-72863000D01*
X112721000Y-69421000D02*
X112721000Y-70080000D01*
X112721000Y-72160000D02*
X112721000Y-72819000D01*
X112761000Y-69467000D02*
X112761000Y-70080000D01*
X112761000Y-72160000D02*
X112761000Y-72773000D01*
X112801000Y-69515000D02*
X112801000Y-72725000D01*
X112841000Y-69566000D02*
X112841000Y-72674000D01*
X112881000Y-69620000D02*
X112881000Y-72620000D01*
X112921000Y-69677000D02*
X112921000Y-72563000D01*
X112961000Y-69737000D02*
X112961000Y-72503000D01*
X113001000Y-69801000D02*
X113001000Y-72439000D01*
X113041000Y-69869000D02*
X113041000Y-72371000D01*
X113081000Y-69942000D02*
X113081000Y-72298000D01*
X113121000Y-70022000D02*
X113121000Y-72218000D01*
X113161000Y-70109000D02*
X113161000Y-72131000D01*
X113201000Y-70205000D02*
X113201000Y-72035000D01*
X113241000Y-70315000D02*
X113241000Y-71925000D01*
X113281000Y-70443000D02*
X113281000Y-71797000D01*
X113321000Y-70602000D02*
X113321000Y-71638000D01*
X113361000Y-70836000D02*
X113361000Y-71404000D01*
X113380000Y-71120000D02*
G75*
G03*
X108140000Y-71120000I-2620000J0D01*
G01*
X108140000Y-71120000D02*
G75*
G03*
X113380000Y-71120000I2620000J0D01*
G01*
%TO.C,U1*%
X118000000Y-92650000D02*
X118000000Y-118170000D01*
X118000000Y-118170000D02*
X123300000Y-118170000D01*
X119650000Y-92650000D02*
X118000000Y-92650000D01*
X123300000Y-92650000D02*
X121650000Y-92650000D01*
X123300000Y-118170000D02*
X123300000Y-92650000D01*
X119650000Y-92650000D02*
G75*
G03*
X121650000Y-92650000I1000000J0D01*
G01*
%TO.C,R2*%
X111430000Y-121920000D02*
X112380000Y-121920000D01*
X112380000Y-121000000D02*
X112380000Y-122840000D01*
X112380000Y-122840000D02*
X116220000Y-122840000D01*
X116220000Y-121000000D02*
X112380000Y-121000000D01*
X116220000Y-122840000D02*
X116220000Y-121000000D01*
X117170000Y-121920000D02*
X116220000Y-121920000D01*
%TO.C,C2*%
X153770000Y-112970000D02*
X151030000Y-112970000D01*
X153770000Y-112970000D02*
X153770000Y-118210000D01*
X151030000Y-112970000D02*
X151030000Y-118210000D01*
X153770000Y-118210000D02*
X151030000Y-118210000D01*
%TO.C,U4*%
X171340000Y-102810000D02*
X171340000Y-120710000D01*
X171340000Y-120710000D02*
X176640000Y-120710000D01*
X172990000Y-102810000D02*
X171340000Y-102810000D01*
X176640000Y-102810000D02*
X174990000Y-102810000D01*
X176640000Y-120710000D02*
X176640000Y-102810000D01*
X172990000Y-102810000D02*
G75*
G03*
X174990000Y-102810000I1000000J0D01*
G01*
%TO.C,U6*%
X158640000Y-59630000D02*
X158640000Y-95310000D01*
X158640000Y-95310000D02*
X171560000Y-95310000D01*
X164100000Y-59630000D02*
X158640000Y-59630000D01*
X171560000Y-59630000D02*
X166100000Y-59630000D01*
X171560000Y-95310000D02*
X171560000Y-59630000D01*
X164100000Y-59630000D02*
G75*
G03*
X166100000Y-59630000I1000000J0D01*
G01*
%TO.C,U3*%
X184040000Y-102805000D02*
X184040000Y-120705000D01*
X184040000Y-120705000D02*
X189340000Y-120705000D01*
X185690000Y-102805000D02*
X184040000Y-102805000D01*
X189340000Y-102805000D02*
X187690000Y-102805000D01*
X189340000Y-120705000D02*
X189340000Y-102805000D01*
X185690000Y-102805000D02*
G75*
G03*
X187690000Y-102805000I1000000J0D01*
G01*
%TO.C,U9*%
X178960000Y-59630000D02*
X178960000Y-95310000D01*
X178960000Y-95310000D02*
X191880000Y-95310000D01*
X184420000Y-59630000D02*
X178960000Y-59630000D01*
X191880000Y-59630000D02*
X186420000Y-59630000D01*
X191880000Y-95310000D02*
X191880000Y-59630000D01*
X184420000Y-59630000D02*
G75*
G03*
X186420000Y-59630000I1000000J0D01*
G01*
%TO.C,C6*%
X184050000Y-97690000D02*
X184050000Y-100430000D01*
X184050000Y-97690000D02*
X189290000Y-97690000D01*
X184050000Y-100430000D02*
X189290000Y-100430000D01*
X189290000Y-97690000D02*
X189290000Y-100430000D01*
%TO.C,J1*%
X199450000Y-97790000D02*
X199450000Y-59630000D01*
X199450000Y-97790000D02*
X196790000Y-97790000D01*
X199450000Y-59630000D02*
X196790000Y-59630000D01*
X198120000Y-100390000D02*
X196790000Y-100390000D01*
X196790000Y-100390000D02*
X196790000Y-99060000D01*
X196790000Y-97790000D02*
X196790000Y-59630000D01*
%TO.C,U2*%
X158640000Y-102810000D02*
X158640000Y-120710000D01*
X158640000Y-120710000D02*
X163940000Y-120710000D01*
X160290000Y-102810000D02*
X158640000Y-102810000D01*
X163940000Y-102810000D02*
X162290000Y-102810000D01*
X163940000Y-120710000D02*
X163940000Y-102810000D01*
X160290000Y-102810000D02*
G75*
G03*
X162290000Y-102810000I1000000J0D01*
G01*
%TO.C,U7*%
X130920000Y-90230000D02*
X130920000Y-59630000D01*
X130920000Y-59630000D02*
X118000000Y-59630000D01*
X125460000Y-90230000D02*
X130920000Y-90230000D01*
X118000000Y-90230000D02*
X123460000Y-90230000D01*
X118000000Y-59630000D02*
X118000000Y-90230000D01*
X125460000Y-90230000D02*
G75*
G03*
X123460000Y-90230000I-1000000J0D01*
G01*
%TO.C,JP2*%
X163800000Y-125820000D02*
X168940000Y-125820000D01*
X163800000Y-125820000D02*
X163800000Y-123160000D01*
X168940000Y-125820000D02*
X168940000Y-123160000D01*
X163800000Y-123160000D02*
X168940000Y-123160000D01*
%TO.C,C11*%
X113130000Y-82490000D02*
X110390000Y-82490000D01*
X113130000Y-82490000D02*
X113130000Y-87730000D01*
X110390000Y-82490000D02*
X110390000Y-87730000D01*
X113130000Y-87730000D02*
X110390000Y-87730000D01*
%TO.C,C4*%
X133450000Y-97730000D02*
X130710000Y-97730000D01*
X133450000Y-97730000D02*
X133450000Y-102970000D01*
X130710000Y-97730000D02*
X130710000Y-102970000D01*
X133450000Y-102970000D02*
X130710000Y-102970000D01*
%TO.C,C1*%
X120590000Y-123090000D02*
X120590000Y-125830000D01*
X120590000Y-123090000D02*
X125830000Y-123090000D01*
X120590000Y-125830000D02*
X125830000Y-125830000D01*
X125830000Y-123090000D02*
X125830000Y-125830000D01*
%TO.C,C8*%
X171390000Y-54510000D02*
X171390000Y-57250000D01*
X171390000Y-54510000D02*
X176630000Y-54510000D01*
X171390000Y-57250000D02*
X176630000Y-57250000D01*
X176630000Y-54510000D02*
X176630000Y-57250000D01*
%TO.C,JP1*%
X176530000Y-125790000D02*
X181670000Y-125790000D01*
X176530000Y-125790000D02*
X176530000Y-123130000D01*
X181670000Y-125790000D02*
X181670000Y-123130000D01*
X176530000Y-123130000D02*
X181670000Y-123130000D01*
%TO.C,J3*%
X196790000Y-105410000D02*
X196790000Y-120710000D01*
X196790000Y-105410000D02*
X199450000Y-105410000D01*
X196790000Y-120710000D02*
X199450000Y-120710000D01*
X198120000Y-102810000D02*
X199450000Y-102810000D01*
X199450000Y-102810000D02*
X199450000Y-104140000D01*
X199450000Y-105410000D02*
X199450000Y-120710000D01*
%TD*%
M02*
